<?xml version="1.0" standalone="no"?><!DOCTYPE svg PUBLIC "-//W3C//DTD SVG 1.1//EN" "http://www.w3.org/Graphics/SVG/1.1/DTD/svg11.dtd"><svg t="1699931320502" class="icon" viewBox="0 0 1024 1024" version="1.1" xmlns="http://www.w3.org/2000/svg" p-id="4323" xmlns:xlink="http://www.w3.org/1999/xlink" width="16" height="16"><path d="M416.255113 226.924256c14.108839-6.921317 37.97851-14.907452 78.530329-21.47383 95.833622-15.617331 221.215945 3.726863 274.456846 16.14974 134.788215 31.323397 187.496707 91.39688 187.496707 91.396881s-113.758059-51.111265-172.944194-40.285615c-25.023224 4.614211-42.592721 13.132756-54.483189 21.47383 70.27799 68.592028 105.594454 170.282149 85.096707 273.835702-19.521664 98.229463-84.741768 175.783709-169.128596 214.827036-5.945234 3.283189-14.996187 7.276256-28.927557 11.624263-17.303293 5.856499-35.138995 10.293241-53.418371 12.955286-0.443674 0.088735-0.887348 0.17747-1.242287 0.266205-91.308146 17.746967-223.87799 10.64818-277.47383 0-135.675563-26.886655-190.424957-85.096707-190.424957-85.096707s98.939341 54.305719 174.186482 34.429116c25.289428-6.655113 42.060312-14.108839 53.152166-21.030156-77.99792-68.503293-118.461005-175.517504-96.89844-284.750087 21.030156-107.014211 96.543501-189.448873 192.022184-224.321664z m-47.916811 282.709186c0-83.32201 67.52721-150.937955 150.937954-150.937955 83.32201 0 150.937955 67.52721 150.937955 150.937955 0 83.32201-67.52721 150.937955-150.937955 150.937955s-150.937955-67.615945-150.937954-150.937955zM240.205199 890.128416c-1.952166 0-48.27175-0.354939-112.781975-32.654419-65.131369-32.565685-80.482496-67.261005-81.990988-71.076604l24.757019-9.849566-0.088735-0.17747c0.088735 0.266205 13.22149 29.282496 69.301906 57.322704 59.008666 29.459965 100.536568 29.814905 100.891508 29.814904v26.620451z m713.871751-642.528943c-0.088735-0.266205-13.22149-29.282496-69.301907-57.322704-58.476256-29.193761-100.536568-29.814905-100.980242-29.814904v-26.620451c1.952166 0 48.27175 0.354939 112.781975 32.65442 65.131369 32.565685 80.482496 67.261005 81.990988 71.076603l-24.757019 9.849566 0.266205 0.17747z" fill="#6578E2" p-id="4324"></path><path d="M525.132756 508.983016m-147.920971 0a147.920971 147.920971 0 1 0 295.841941 0 147.920971 147.920971 0 1 0-295.841941 0Z" fill="#FFFFFF" p-id="4325"></path></svg>